<svg width="93" height="73" viewBox="0 0 93 73" fill="none" xmlns="http://www.w3.org/2000/svg">
<mask id="path-1-inside-1" fill="white">
<path fill-rule="evenodd" clip-rule="evenodd" d="M28.8303 0H13.8814V13.846L0 13.846V28.757H13.8814V42.603H28.8303V28.757H42.7111V13.846L28.8303 13.846V0Z"/>
</mask>
<path d="M13.8814 0V-4H9.88139V0H13.8814ZM28.8303 0H32.8303V-4H28.8303V0ZM13.8814 13.846V17.846L17.8814 17.846V13.846H13.8814ZM0 13.846L2.74807e-07 9.84595H-4V13.846H0ZM0 28.757H-4V32.757H0V28.757ZM13.8814 28.757H17.8814V24.757H13.8814V28.757ZM13.8814 42.603H9.88139V46.603H13.8814V42.603ZM28.8303 42.603V46.603H32.8303V42.603H28.8303ZM28.8303 28.757V24.757H24.8303V28.757H28.8303ZM42.7111 28.757V32.757H46.7111V28.757H42.7111ZM42.7111 13.846H46.7111V9.84595H42.7111V13.846ZM28.8303 13.846H24.8303V17.846H28.8303V13.846ZM13.8814 4H28.8303V-4H13.8814V4ZM17.8814 13.846V0H9.88139V13.846H17.8814ZM-2.74807e-07 17.846H13.8814V9.84595L2.74807e-07 9.84595L-2.74807e-07 17.846ZM4 28.757V13.846H-4V28.757H4ZM13.8814 24.757H0V32.757H13.8814V24.757ZM17.8814 42.603V28.757H9.88139V42.603H17.8814ZM28.8303 38.603H13.8814V46.603H28.8303V38.603ZM24.8303 28.757V42.603H32.8303V28.757H24.8303ZM42.7111 24.757H28.8303V32.757H42.7111V24.757ZM38.7111 13.846V28.757H46.7111V13.846H38.7111ZM28.8303 17.846L42.7111 17.846V9.84595L28.8303 9.84595V17.846ZM24.8303 0V13.846H32.8303V0H24.8303Z" fill="#FFC41E" mask="url(#path-1-inside-1)"/>
<path d="M43.745 37.9576L62.5742 44.4733V71.0531C62.5742 71.5694 62.3625 72.0646 61.9857 72.4297C61.6089 72.7948 61.0979 72.9999 60.565 72.9999H52.5279C51.9951 72.9999 51.484 72.7948 51.1072 72.4297C50.7304 72.0646 50.5187 71.5694 50.5187 71.0531V57.4255H30.4261V71.0531C30.4261 71.5694 30.2144 72.0646 29.8376 72.4297C29.4608 72.7948 28.9497 72.9999 28.4168 72.9999H20.3798C19.8469 72.9999 19.3358 72.7948 18.959 72.4297C18.5822 72.0646 18.3705 71.5694 18.3705 71.0531V45.0257C13.704 43.4135 10.3335 39.1329 10.3335 34.064C10.3335 33.0313 10.7569 32.041 11.5105 31.3108C12.2641 30.5806 13.2862 30.1704 14.352 30.1704C15.4178 30.1704 16.4399 30.5806 17.1935 31.3108C17.9472 32.041 18.3705 33.0313 18.3705 34.064C18.3725 35.096 18.7965 36.0853 19.5497 36.815C20.3029 37.5448 21.3239 37.9556 22.3891 37.9576H43.745ZM74.6298 24.33V28.2236C74.6298 30.2889 73.783 32.2696 72.2758 33.73C70.7686 35.1903 68.7243 36.0108 66.5928 36.0108H62.5742V40.34L46.5002 34.7782V16.5428C46.5002 14.8089 48.6626 13.9402 49.9297 15.1667L53.3555 18.4896H60.0903C61.4604 18.4896 63.0728 19.4533 63.6844 20.642L64.5835 22.3832H72.6205C73.1534 22.3832 73.6645 22.5883 74.0413 22.9534C74.4181 23.3185 74.6298 23.8137 74.6298 24.33ZM60.565 24.33C60.565 23.945 60.4471 23.5686 60.2264 23.2484C60.0056 22.9283 59.6918 22.6787 59.3246 22.5314C58.9575 22.384 58.5535 22.3455 58.1637 22.4206C57.774 22.4957 57.416 22.6811 57.135 22.9534C56.854 23.2257 56.6626 23.5725 56.5851 23.9502C56.5075 24.3278 56.5473 24.7193 56.6994 25.075C56.8515 25.4307 57.109 25.7348 57.4394 25.9487C57.7699 26.1626 58.1583 26.2768 58.5557 26.2768C59.0886 26.2768 59.5997 26.0717 59.9765 25.7066C60.3533 25.3415 60.565 24.8463 60.565 24.33Z" fill="#242424"/>
<path d="M93.0003 60.9749C93.0003 67.6746 87.4835 72.9999 80.5429 72.9999H69.8651C62.9246 72.9999 57.4077 67.6746 57.4077 60.9749V55.8213H93.0003V60.9749Z" fill="#FFC41E"/>
</svg>
