<svg width="84" height="82" viewBox="0 0 84 82" fill="none" xmlns="http://www.w3.org/2000/svg">
<path d="M82 35.9772L42 3.96069" stroke="#242424" stroke-width="4" stroke-linecap="round" stroke-linejoin="round"/>
<path d="M2 35.9772L42 3.96069" stroke="#242424" stroke-width="4" stroke-linecap="round" stroke-linejoin="round"/>
<path d="M14 80V27.9731" stroke="#242424" stroke-width="4" stroke-linecap="round"/>
<path d="M70 80V27.9731" stroke="#242424" stroke-width="4" stroke-linecap="round"/>
<path d="M14 80H70" stroke="#242424" stroke-width="4" stroke-linecap="round"/>
<path d="M42.2879 45.7486L52.7219 49.3939V64.2642C52.7219 64.5531 52.6046 64.8301 52.3958 65.0344C52.187 65.2386 51.9038 65.3534 51.6085 65.3534H47.1549C46.8596 65.3534 46.5764 65.2386 46.3676 65.0344C46.1588 64.8301 46.0415 64.5531 46.0415 64.2642V56.6401H34.9075V64.2642C34.9075 64.5531 34.7902 64.8301 34.5813 65.0344C34.3725 65.2386 34.0893 65.3534 33.7941 65.3534H29.3404C29.0452 65.3534 28.762 65.2386 28.5532 65.0344C28.3444 64.8301 28.227 64.5531 28.227 64.2642V49.7029C25.6412 48.8009 23.7734 46.4062 23.7734 43.5703C23.7734 42.9925 24.008 42.4385 24.4257 42.03C24.8433 41.6215 25.4097 41.392 26.0002 41.392C26.5908 41.392 27.1572 41.6215 27.5748 42.03C27.9924 42.4385 28.227 42.9925 28.227 43.5703C28.2281 44.1477 28.4631 44.7011 28.8805 45.1094C29.2978 45.5177 29.8636 45.7475 30.4538 45.7486H42.2879ZM59.4023 38.1245V40.3028C59.4023 41.4582 58.9331 42.5664 58.0979 43.3834C57.2627 44.2004 56.1299 44.6594 54.9487 44.6594H52.7219V47.0814L43.8147 43.9699V33.7679C43.8147 32.7978 45.013 32.3118 45.7151 32.998L47.6135 34.857H51.3454C52.1046 34.857 52.9982 35.3961 53.337 36.0612L53.8353 37.0353H58.2889C58.5842 37.0353 58.8674 37.1501 59.0762 37.3543C59.285 37.5586 59.4023 37.8356 59.4023 38.1245ZM51.6085 38.1245C51.6085 37.9091 51.5432 37.6985 51.4208 37.5194C51.2985 37.3403 51.1246 37.2007 50.9212 37.1182C50.7177 37.0358 50.4938 37.0142 50.2779 37.0563C50.0619 37.0983 49.8635 37.202 49.7078 37.3543C49.5521 37.5067 49.446 37.7007 49.4031 37.912C49.3601 38.1233 49.3822 38.3423 49.4664 38.5413C49.5507 38.7403 49.6934 38.9104 49.8765 39.0301C50.0596 39.1498 50.2749 39.2136 50.4951 39.2136C50.7904 39.2136 51.0736 39.0989 51.2824 38.8946C51.4912 38.6904 51.6085 38.4133 51.6085 38.1245Z" fill="#242424"/>
<path d="M36.7669 6.69643C36.2141 5.38602 35.417 4.19853 34.4202 3.20045C33.4227 2.1994 32.2466 1.40387 30.9559 0.857135C29.6175 0.287954 28.182 -0.0033853 26.7327 2.96773e-05C24.6995 2.96773e-05 22.7158 0.570026 20.9919 1.64669C20.5794 1.90424 20.1876 2.18713 19.8165 2.49535C19.4453 2.18713 19.0535 1.90424 18.6411 1.64669C16.9172 0.570026 14.9334 2.96773e-05 12.9002 2.96773e-05C11.4361 2.96773e-05 10.0174 0.287139 8.67705 0.857135C7.38206 1.40602 6.21492 2.19557 5.21274 3.20045C4.21467 4.19741 3.41739 5.38517 2.86608 6.69643C2.29282 8.0602 2 9.50841 2 10.9988C2 12.4048 2.28044 13.8699 2.83721 15.3604C3.30324 16.6059 3.97136 17.8979 4.82507 19.2026C6.1778 21.2672 8.0378 23.4205 10.3473 25.6034C14.1746 29.2218 17.9647 31.7214 18.1256 31.8227L19.103 32.4645C19.536 32.7474 20.0928 32.7474 20.5258 32.4645L21.5033 31.8227C21.6641 31.7171 25.4501 29.2218 29.2815 25.6034C31.591 23.4205 33.451 21.2672 34.8038 19.2026C35.6575 17.8979 36.3297 16.6059 36.7916 15.3604C37.3484 13.8699 37.6288 12.4048 37.6288 10.9988C37.6329 9.50841 37.3401 8.0602 36.7669 6.69643Z" fill="#FFC41E"/>
</svg>
